<svg width="681" height="185" viewBox="0 0 681 185" fill="none" xmlns="http://www.w3.org/2000/svg">
<path d="M37 25.0092C63.4723 14.099 112.028 1.56643 146.287 11.306C163.906 16.3148 179.899 35.273 182.965 55.4691C185.505 72.2047 179.014 91.3382 170.043 101.02C169.385 101.73 169.035 102.672 169.101 103.638C169.124 103.979 169.203 104.326 169.326 104.644C181.719 136.509 162.275 151.899 140.12 156.222C117.433 160.649 95.2794 168.245 73.9717 177.12H73.9697L73.9688 177.121C52.1305 186.234 20.8442 176.833 10.2783 153.424C4.30451 140.189 8.52537 120.936 13.3428 107.305C13.9285 105.648 13.5934 103.808 12.5244 102.413C8.55753 97.2362 5.44083 91.0815 3.50098 84.142C-4.12034 56.8745 12.8208 34.9743 37 25.0092ZM114.908 61.1654C108.635 54.23 97.5422 53.1172 89.1426 60.889C87.5139 62.396 84.529 62.0475 82.9668 60.4711C77.9484 55.406 68.7616 54.3419 61.0439 57.4388C54.6646 59.9987 49.541 65.8629 46.4541 74.8617C46.4541 74.8617 40.8604 96.4003 36.0732 109.507C28.4968 131.95 61.6053 138.415 68.1221 117.38L77.5176 84.4242C79.001 79.6444 81.2458 75.5336 85.7549 76.6791C90.2641 77.8247 90.5048 82.4569 88.7295 87.4388L84.333 105.623C80.3124 120.146 100.736 124.067 105.059 110.756L112.11 84.4242C113.514 79.3615 116.038 76.393 119.691 77.1556C123.345 77.9191 124.455 81.0511 123.011 86.1049L119.125 101.447C116.571 110.27 118.876 117.604 127.767 119.03C137.461 120.584 143.551 116.511 145.627 114.789C146.172 114.339 146.489 113.692 146.606 112.994C146.839 111.616 145.772 110.378 144.379 110.339C140.707 110.239 138.456 109.677 137.643 107.31C137.021 105.501 136.802 103.545 137.924 99.6078C138.898 96.1892 141.373 87.2989 143.187 80.7699C145.212 73.4811 148.028 65.1583 141.291 59.3959C135.635 54.5581 126.831 55.947 119.946 61.6263C118.479 62.8369 116.185 62.577 114.908 61.1654Z" fill="currentColor"/>
<path d="M126.123 182.709C153.626 181.998 161.081 165.17 154.675 163.914C137.203 160.488 64.0647 184.315 126.123 182.709Z" fill="currentColor"/>
<path d="M31.5185 5.48149C12.5894 6.95477 6.73902 25.6945 11.3055 25.6945C23.4298 25.6945 72.9003 2.26069 31.5185 5.48149Z" fill="currentColor"/>
<path d="M628.572 153.039H607.771V59.4394H628.572V70.2294C633.122 62.2994 641.312 57.3594 650.672 57.3594C669.132 57.3594 680.572 72.9594 680.572 92.7194C680.572 112.479 669.132 128.079 650.672 128.079C641.182 128.079 633.122 123.269 628.572 115.209V153.039ZM628.572 92.7194C628.572 102.209 634.552 110.399 644.172 110.399C654.442 110.399 659.771 102.209 659.771 92.7194C659.771 83.2294 654.442 75.0394 644.172 75.0394C634.552 75.0394 628.572 83.2294 628.572 92.7194Z" fill="currentColor"/>
<path d="M576.785 59.4395H597.585V125.999H576.785V117.419C572.235 124.569 565.475 128.079 556.765 128.079C544.025 128.079 533.105 119.369 533.105 99.8695V59.4395H553.905V96.8795C553.905 105.589 558.455 110.399 565.085 110.399C572.235 110.399 576.785 105.719 576.785 95.0595V59.4395Z" fill="currentColor"/>
<path d="M490.674 76.0797H478.194V59.4397H486.514C490.544 59.4397 492.754 57.2297 492.754 53.1997V40.7197H511.474V59.4397H526.034V76.0797H511.474V100.13C511.474 108.32 518.754 111.44 526.034 108.32V126C524.214 126.52 521.354 127.04 517.844 127.04C501.724 127.04 490.674 121.58 490.674 98.1797V76.0797Z" fill="currentColor"/>
<path d="M406.846 92.7194C406.846 72.0494 420.106 57.3594 443.116 57.3594C460.536 57.3594 477.566 67.6294 477.566 90.5094C477.566 92.5894 477.436 95.9694 477.176 97.9194H427.516C428.946 106.109 434.666 111.439 443.636 111.439C450.006 111.439 453.906 107.669 455.856 103.379L476.136 107.799C472.106 117.809 462.356 128.079 443.506 128.079C419.586 128.079 406.846 112.479 406.846 92.7194ZM427.906 85.4394H457.156C456.246 77.6394 451.046 73.4794 443.506 73.4794C433.626 73.4794 429.466 78.5494 427.906 85.4394Z" fill="currentColor"/>
<path d="M332.735 92.7194C332.735 72.0494 345.995 57.3594 369.005 57.3594C386.425 57.3594 403.455 67.6294 403.455 90.5094C403.455 92.5894 403.325 95.9694 403.065 97.9194H353.405C354.835 106.109 360.555 111.439 369.525 111.439C375.895 111.439 379.795 107.669 381.745 103.379L402.025 107.799C397.995 117.809 388.245 128.079 369.395 128.079C345.475 128.079 332.735 112.479 332.735 92.7194ZM353.795 85.4394H383.045C382.135 77.6394 376.935 73.4794 369.395 73.4794C359.515 73.4794 355.355 78.5494 353.795 85.4394Z" fill="currentColor"/>
<path d="M248.8 125.999H228V59.4394H248.8V68.0194C252.83 60.8694 259.07 57.3594 266.87 57.3594C274.67 57.3594 281.95 60.6094 285.72 69.1894C290.79 60.3494 298.33 57.3594 305.87 57.3594C317.05 57.3594 327.84 63.9894 327.84 83.4894V125.999H307.04V85.5694C307.04 78.6794 303.4 75.0394 297.94 75.0394C291.96 75.0394 288.32 78.5494 288.32 87.3894V125.999H267.52V85.5694C267.52 78.6794 263.88 75.0394 258.42 75.0394C252.44 75.0394 248.8 78.5494 248.8 87.3894V125.999Z" fill="currentColor"/>
</svg>
